<?xml version="1.0" standalone="no"?><!DOCTYPE svg PUBLIC "-//W3C//DTD SVG 1.1//EN" "http://www.w3.org/Graphics/SVG/1.1/DTD/svg11.dtd"><svg t="1596180003951" class="icon" viewBox="0 0 1024 1024" version="1.1" xmlns="http://www.w3.org/2000/svg" p-id="4178" xmlns:xlink="http://www.w3.org/1999/xlink" width="200" height="200"><defs><style type="text/css"></style></defs><path d="M512 0C229.23 0 0 229.23 0 512s229.23 512 512 512c282.768 0 512-229.23 512-512S794.77 0 512 0z m234.76 656.252c7.808 7.808 7.806 20.472 0.002 28.284l-62.228 62.224c-7.808 7.808-20.47 7.814-28.286 0.002L512 602.51 367.75 746.76c-7.81 7.812-20.474 7.808-28.284 0l-62.226-62.224c-7.81-7.808-7.812-20.472 0-28.284L421.492 512l-144.25-144.25c-7.81-7.808-7.81-20.474 0-28.284l62.226-62.224c7.81-7.812 20.474-7.81 28.284 0L512 421.49l144.252-144.25c7.806-7.812 20.47-7.81 28.282 0l62.226 62.224c7.806 7.812 7.808 20.474 0 28.284L602.51 512l144.25 144.252z" p-id="4179" fill="#BFC2CC"></path></svg>