<?xml version="1.0" standalone="no"?><!DOCTYPE svg PUBLIC "-//W3C//DTD SVG 1.1//EN" "http://www.w3.org/Graphics/SVG/1.1/DTD/svg11.dtd"><svg t="1598430817902" class="icon" viewBox="0 0 1024 1024" version="1.1" xmlns="http://www.w3.org/2000/svg" p-id="2831" xmlns:xlink="http://www.w3.org/1999/xlink" width="200" height="200"><defs><style type="text/css"></style></defs><path d="M512.48914 66.861804c61.534472 0 119.269407 11.735275 173.202761 35.210943 53.900607 23.530926 100.907201 55.263651 140.925636 95.309716 40.018436 39.995923 71.806419 87.158059 95.282087 141.442406 23.475667 54.229089 35.238572 112.097054 35.238572 173.665295 0 61.512982-11.762905 119.269407-35.238572 173.175131-23.475667 53.955866-55.263651 100.907201-95.282087 140.953266-40.018436 40.046065-87.024006 71.77879-140.925636 95.254457-53.934376 23.530926-111.668289 35.266202-173.202761 35.266202-61.540611 0-119.408577-11.735275-173.692924-35.266202-54.229089-23.475667-101.397365-55.208393-141.414777-95.254457-40.045041-40.046065-71.806419-86.996376-95.282087-140.953266-23.503297-53.905724-35.237549-111.663172-35.237549-173.175131 0-61.568241 11.734252-119.436206 35.237549-173.665295 23.475667-54.284347 55.236022-101.447507 95.282087-141.442406 40.017412-40.046065 87.185688-71.77879 141.414777-95.309716C393.080563 78.597079 450.948529 66.861804 512.48914 66.861804M566.095036 450.9209c0-15.863293-5.135974-29.228695-15.379269-40.151465-10.271948-10.92277-22.985504-16.414855-38.226626-16.414855-15.21247 0-28.121478 5.492084-38.715767 16.414855-10.571776 10.92277-15.869433 24.288173-15.869433 40.151465l0 332.49572c0 15.869433 5.297656 28.639271 15.869433 38.254256 10.594289 9.564843 23.503297 14.344706 38.715767 14.344706 15.240099 0 28.121478-4.940522 38.715767-14.833847 10.594289-9.943466 15.863293-22.874987 15.863293-38.738279L566.095036 450.9209 566.095036 450.9209zM512.48914 327.845817c19.208481 0 35.560914-6.738471 49.148373-20.320814 13.532201-13.582343 20.320814-29.940916 20.320814-49.120744s-6.788613-35.594683-20.320814-49.120744c-13.58746-13.58746-29.940916-20.376073-49.148373-20.376073-19.179828 0-35.727713 6.788613-49.638537 20.376073-13.883195 13.527085-20.809955 29.940916-20.809955 49.120744s6.927783 35.538401 20.809955 49.120744C476.761428 321.108369 493.309312 327.845817 512.48914 327.845817" p-id="2832" fill="#FF7200"></path></svg>