<?xml version="1.0" standalone="no"?><!DOCTYPE svg PUBLIC "-//W3C//DTD SVG 1.1//EN" "http://www.w3.org/Graphics/SVG/1.1/DTD/svg11.dtd"><svg t="1594364523724" class="icon" viewBox="0 0 1024 1024" version="1.1" xmlns="http://www.w3.org/2000/svg" p-id="2137" xmlns:xlink="http://www.w3.org/1999/xlink" width="200" height="200"><defs><style type="text/css"></style></defs><path d="M512 0C226.743 0 0 226.743 0 512s226.743 512 512 512 512-226.743 512-512S797.257 0 512 0z m321.829 358.4L453.486 731.429c-14.629 14.628-36.572 14.628-51.2 7.314-7.315 0-14.629-7.314-14.629-7.314v-7.315L190.171 541.257c-14.628-14.628-14.628-43.886 0-65.828s43.886-14.629 65.829 0l160.914 160.914L760.686 292.57c14.628-14.628 51.2-14.628 65.828 0 21.943 14.629 21.943 43.886 7.315 65.829z" p-id="2138" fill="#D2D2D7"></path></svg>